<svg width="1436" height="1522" viewBox="0 0 1436 1522" fill="none" xmlns="http://www.w3.org/2000/svg">
<path fill-rule="evenodd" clip-rule="evenodd" d="M1436 1430.8C1395.16 1398.54 1359.79 1362.73 1327.06 1329.59C1256.28 1257.92 1197.82 1198.73 1123 1215C1102.88 1219.37 1082.29 1243.05 1058.15 1270.8C1009.34 1326.92 946.066 1399.67 843 1363C829.854 1358.32 814.307 1351.99 797.422 1345.12C737.245 1320.62 660.073 1289.2 614 1301C498.208 1330.66 413.349 1375.83 334.885 1417.6C231.023 1472.89 138.366 1522.21 0 1521.7L0 635.203C195.676 731.956 242.239 731.721 364.511 731.106C374.764 731.054 385.55 731 397 731C536.044 731 570.092 668.686 597.896 617.797C617.085 582.678 633.3 553 679 553C886.359 553 967.621 457.009 1028.21 385.439C1073.4 332.064 1107.08 292.27 1173 316C1254.03 345.171 1337.69 185.402 1397.9 70.4058C1412 43.4837 1424.81 19.0155 1436 0V1430.8Z" fill="#4893BD" fill-opacity="0.6"/>
<path fill-rule="evenodd" clip-rule="evenodd" d="M1436 1430.8C1395.16 1398.54 1359.79 1362.73 1327.06 1329.59C1256.28 1257.92 1197.82 1198.73 1123 1215C1102.88 1219.37 1082.29 1243.05 1058.15 1270.8C1009.34 1326.92 946.066 1399.67 843 1363C829.854 1358.32 814.307 1351.99 797.422 1345.12C737.245 1320.62 660.073 1289.2 614 1301C498.208 1330.66 413.349 1375.83 334.885 1417.6C231.023 1472.89 138.366 1522.21 0 1521.7L0 635.203C195.676 731.956 242.239 731.721 364.511 731.106C374.764 731.054 385.55 731 397 731C536.044 731 570.092 668.686 597.896 617.797C617.085 582.678 633.3 553 679 553C886.359 553 967.621 457.009 1028.21 385.439C1073.4 332.064 1107.08 292.27 1173 316C1254.03 345.171 1337.69 185.402 1397.9 70.4058C1412 43.4837 1424.81 19.0155 1436 0V1430.8Z" fill="url(#paint0_linear)"/>
<defs>
<linearGradient id="paint0_linear" x1="123" y1="101" x2="718" y2="1521.71" gradientUnits="userSpaceOnUse">
<stop stop-color="white"/>
<stop offset="1" stop-color="white" stop-opacity="0"/>
</linearGradient>
</defs>
</svg>
