<svg width="679" height="820" viewBox="0 0 679 820" fill="none" xmlns="http://www.w3.org/2000/svg">
<circle cx="475.233" cy="424.806" r="167.631" fill="#D5B76B"/>
<circle cx="470.874" cy="426.476" r="95.4757" stroke="#404040" stroke-width="20"/>
<path d="M675 450.961H4C1.79086 450.961 0 452.752 0 454.961V472.371C0 473.149 0.226732 473.91 0.652443 474.561L112.767 645.976C113.506 647.106 114.765 647.786 116.115 647.786H561.953C563.298 647.786 564.552 647.111 565.292 645.989L678.339 474.565C678.77 473.911 679 473.146 679 472.363V454.961C679 452.752 677.209 450.961 675 450.961Z" fill="#404040"/>
<path d="M555.076 646.845H497.212C496.499 646.845 496.015 647.571 496.289 648.229L500.883 659.256C501.008 659.557 500.979 659.9 500.805 660.175L405.388 811.058C404.967 811.724 405.445 812.592 406.233 812.592H428.052C428.384 812.592 428.695 812.427 428.881 812.151L522.146 673.655C522.568 673.029 523.505 673.078 523.859 673.746L597.194 812.061C597.367 812.388 597.707 812.592 598.077 812.592H619.463C620.191 812.592 620.675 811.839 620.373 811.177L551.387 660.133C551.271 659.88 551.266 659.59 551.373 659.333L555.999 648.229C556.273 647.571 555.79 646.845 555.076 646.845Z" fill="#404040" stroke="#404040" stroke-width="14"/>
<path d="M123.215 646.845H181.079C181.793 646.845 182.277 647.571 182.002 648.229L177.409 659.256C177.283 659.557 177.312 659.9 177.486 660.175L272.904 811.058C273.325 811.724 272.846 812.592 272.058 812.592H250.24C249.907 812.592 249.596 812.427 249.41 812.151L156.145 673.655C155.724 673.029 154.786 673.078 154.433 673.746L81.0976 812.061C80.9242 812.388 80.5843 812.592 80.2141 812.592H58.8282C58.1001 812.592 57.6161 811.839 57.9185 811.177L126.905 660.133C127.02 659.88 127.025 659.59 126.918 659.333L122.292 648.229C122.018 647.571 122.502 646.845 123.215 646.845Z" fill="#404040" stroke="#404040" stroke-width="14"/>
<path d="M474.525 12.4136C474.882 10.1659 478.118 10.1659 478.475 12.4136L491.287 92.9357C491.48 94.1504 490.542 95.25 489.312 95.25H463.688C462.458 95.25 461.52 94.1504 461.713 92.9357L474.525 12.4136Z" fill="#D4B76B"/>
<path d="M554.092 88.4536C556.187 87.994 556.187 85.006 554.092 84.5464L468.678 65.8149C467.431 65.5413 466.25 66.4913 466.25 67.7685L466.25 105.231C466.25 106.509 467.431 107.459 468.678 107.185L554.092 88.4536Z" fill="#D4B76B"/>
<path d="M393.908 88.4536C391.813 87.994 391.813 85.006 393.908 84.5464L479.322 65.8149C480.569 65.5413 481.75 66.4913 481.75 67.7685L481.75 105.231C481.75 106.509 480.569 107.459 479.322 107.185L393.908 88.4536Z" fill="#D4B76B"/>
<path d="M478.464 189.861C478.045 192.021 474.955 192.021 474.536 189.861L454.011 83.8803C453.772 82.6461 454.718 81.5 455.975 81.5H497.025C498.282 81.5 499.228 82.6461 498.989 83.8803L478.464 189.861Z" fill="#D4B76B"/>
<path d="M516.681 51.3863C517.336 49.6045 515.372 47.9989 513.756 48.9938L471.716 74.8686C470.545 75.5894 470.434 77.2496 471.498 78.1201L496.526 98.5859C497.591 99.4564 499.196 99.0177 499.67 97.7268L516.681 51.3863Z" fill="#D4B76B"/>
<path d="M434.95 51.2869C434.296 49.5051 436.26 47.8996 437.876 48.8945L479.916 74.7692C481.087 75.49 481.198 77.1502 480.134 78.0207L455.105 98.4865C454.041 99.357 452.436 98.9184 451.962 97.6275L434.95 51.2869Z" fill="#D4B76B"/>
<path d="M516.681 138.965C517.336 140.746 515.372 142.352 513.756 141.357L471.716 115.482C470.545 114.761 470.434 113.101 471.498 112.231L496.526 91.7649C497.591 90.8945 499.196 91.3331 499.67 92.624L516.681 138.965Z" fill="#D4B76B"/>
<path d="M434.95 138.965C434.296 140.746 436.26 142.352 437.876 141.357L479.916 115.482C481.087 114.761 481.198 113.101 480.134 112.231L455.105 91.7649C454.041 90.8945 452.436 91.3331 451.962 92.624L434.95 138.965Z" fill="#D4B76B"/>
</svg>
