<?xml version="1.0" encoding="utf-8"?>
<!-- Generator: Adobe Illustrator 15.1.0, SVG Export Plug-In . SVG Version: 6.00 Build 0)  -->
<!DOCTYPE svg PUBLIC "-//W3C//DTD SVG 1.1//EN" "http://www.w3.org/Graphics/SVG/1.1/DTD/svg11.dtd">
<svg version="1.1" id="Layer_1" xmlns="http://www.w3.org/2000/svg" xmlns:xlink="http://www.w3.org/1999/xlink" x="0px" y="0px"
	 width="148px" height="167px" viewBox="0 0 148 167" enable-background="new 0 0 148 167" xml:space="preserve">
<path d="M51.442,116.089l-7.25,18.75c0,0,0,6.75,5.5,1.75s24.495-20.5,24.495-20.5H51.442z"/>
<path d="M102.862,31.863l-55.409,5.971l-9,75.5c0,0,0.5,8.75,13.25,7s56.25-10.501,56.25-10.501l8.213-64.332l-50.213,6.083
	c0,0-12.75,0.5-12.75-9.75c0,0.25,49.41-5.971,49.41-5.971L102.862,31.863z"/>
<polygon fill="#FFFFFF" points="91.986,74.115 83.705,74.949 82.08,90.146 74.236,91.115 76.023,76.084 68.174,77.053 
	68.861,71.146 76.736,70.115 77.789,61.203 85.611,60.271 84.549,69.146 92.705,68.146 "/>
<polygon fill="#939598" points="107.739,40.322 56.706,46.462 56.826,47.453 108.71,41.211 "/>
<polygon fill="#939598" points="110.81,43.041 60.312,49.321 60.433,50.314 111.755,43.95 "/>
<polygon fill="#939598" points="104.305,37.604 55.318,43.502 55.438,44.496 105.279,38.495 "/>
</svg>
