<svg enable-background="new 0 0 148 167" height="167" viewBox="0 0 148 167" width="148" xmlns="http://www.w3.org/2000/svg"><path d="m51.442 116.089-7.25 18.75s0 6.75 5.5 1.75 24.495-20.5 24.495-20.5z"/><path d="m102.862 31.863-55.409 5.971-9 75.5s.5 8.75 13.25 7 56.25-10.501 56.25-10.501l8.213-64.332-50.213 6.083s-12.75.5-12.75-9.75c0 .25 49.41-5.971 49.41-5.971z"/><path d="m91.986 74.115-8.281.834-1.625 15.197-7.844.969 1.787-15.031-7.849.969.687-5.907 7.875-1.031 1.053-8.912 7.822-.932-1.062 8.875 8.156-1z" fill="#fff"/><g fill="#939598"><path d="m107.739 40.322-51.033 6.14.12.991 51.884-6.242z"/><path d="m110.81 43.041-50.498 6.28.121.993 51.322-6.364z"/><path d="m104.305 37.604-48.987 5.898.12.994 49.841-6.001z"/></g></svg>