<svg width="496" height="1120" viewBox="0 0 496 1120" fill="none" xmlns="http://www.w3.org/2000/svg">
<line y1="-5" x2="218.404" y2="-5" transform="matrix(4.64966e-08 1 1 -4.1093e-08 68.3009 901.148)" stroke="white" stroke-width="10"/>
<line y1="-5" x2="141.163" y2="-5" transform="matrix(4.64966e-08 1 1 -4.1093e-08 173.744 618.821)" stroke="white" stroke-width="10"/>
<line y1="-5" x2="275.13" y2="-5" transform="matrix(0.599443 -0.800417 0.938964 0.344016 10 977.54)" stroke="white" stroke-width="10"/>
<line y1="-5" x2="73.5369" y2="-5" transform="matrix(0.932103 -0.362194 0.621964 0.783046 128.048 637.466)" stroke="white" stroke-width="10"/>
<line x1="191.592" y1="610.831" x2="191.592" y2="496.302" stroke="white" stroke-width="10"/>
<line y1="-5" x2="329.924" y2="-5" transform="matrix(-0.173808 0.98478 -0.996352 -0.0853387 242.288 171.36)" stroke="white" stroke-width="10"/>
<line x1="432.699" y1="901.148" x2="432.699" y2="1119.55" stroke="white" stroke-width="10"/>
<line x1="327.256" y1="618.821" x2="327.256" y2="759.985" stroke="white" stroke-width="10"/>
<line y1="-5" x2="275.13" y2="-5" transform="matrix(-0.599443 -0.800417 -0.938964 0.344016 486 977.54)" stroke="white" stroke-width="10"/>
<line y1="-5" x2="73.5369" y2="-5" transform="matrix(-0.932103 -0.362194 -0.621964 0.783046 367.952 637.466)" stroke="white" stroke-width="10"/>
<line y1="-5" x2="114.529" y2="-5" transform="matrix(0 -1 -1 0 299.408 610.831)" stroke="white" stroke-width="10"/>
<line y1="-5" x2="329.924" y2="-5" transform="matrix(0.173808 0.98478 0.996352 -0.0853387 253.712 171.36)" stroke="white" stroke-width="10"/>
<line x1="67.12" y1="1114.55" x2="428.88" y2="1114.55" stroke="white" stroke-width="10"/>
<line x1="247.98" y1="3.27835e-07" x2="247.98" y2="190.4" stroke="white" stroke-width="15"/>
<line x1="202.4" y1="45.812" x2="297.6" y2="45.812" stroke="white" stroke-width="15"/>
<circle cx="248" cy="691.152" r="52.716" stroke="white" stroke-width="5"/>
<path d="M194.335 1016.85L194.092 1017.36V1017.93V1109.32V1111.82H196.592H299.408H301.908V1109.32V1017.93V1017.42L301.713 1016.96C291.692 993.101 282.52 975.987 273.732 965.056C264.976 954.164 256.146 948.872 246.853 950.031C237.777 951.164 229.311 958.37 220.954 969.619C212.518 980.974 203.788 997.01 194.335 1016.85Z" stroke="white" stroke-width="5"/>
<rect x="117.932" y="880.956" width="58.312" height="65.928" stroke="white" stroke-width="5"/>
<rect x="319.756" y="880.956" width="58.312" height="65.928" stroke="white" stroke-width="5"/>
</svg>
