<svg width="164" height="164" viewBox="0 0 164 164" fill="none" xmlns="http://www.w3.org/2000/svg">
<path d="M116.13 34.8833L111.195 32.7077C110.962 31.8399 110.706 31.0062 110.426 30.2067L113.165 25.4789C113.387 25.0948 113.506 24.6596 113.51 24.2158C113.513 23.772 113.402 23.3348 113.186 22.9472C111.864 20.5979 110.286 18.4022 108.481 16.4C108.176 16.0589 107.785 15.8057 107.348 15.6669C106.912 15.5281 106.447 15.5087 106 15.6107L100.801 16.7997C100.158 16.2872 99.4865 15.7747 98.7921 15.3161L98.2796 9.82461C98.2389 9.37782 98.0816 8.94953 97.8235 8.58258C97.5654 8.21564 97.2154 7.92289 96.8087 7.73361C94.3921 6.60341 91.8553 5.75063 89.2468 5.19161C88.7987 5.09577 88.3331 5.1228 87.8992 5.26986C87.4652 5.41691 87.0791 5.67851 86.7816 6.02699L83.2377 10.1321C82.4131 10.0886 81.5869 10.0886 80.7623 10.1321L77.2107 6.01417C76.9134 5.66547 76.5273 5.40371 76.0933 5.25665C75.6593 5.10958 75.1936 5.08268 74.7456 5.1788C72.1369 5.73742 69.6 6.5902 67.1836 7.7208C66.7769 7.91007 66.4269 8.20282 66.1688 8.56977C65.9107 8.93672 65.7534 9.36501 65.7127 9.8118L65.2003 15.3032C64.5033 15.7722 63.8319 16.2693 63.1887 16.7869L57.9919 15.5979C57.5457 15.4959 57.0802 15.5153 56.644 15.6541C56.2078 15.7929 55.8167 16.0461 55.5114 16.3872C53.7092 18.3944 52.134 20.5944 50.8144 22.9472C50.5986 23.335 50.4873 23.7723 50.4914 24.2161C50.4954 24.6599 50.6147 25.0951 50.8374 25.4789L53.5768 30.2067C53.2898 31.0028 53.0335 31.8365 52.808 32.7077L47.8726 34.8833C47.4609 35.0647 47.1041 35.3513 46.8383 35.7143C46.5724 36.0773 46.4068 36.5039 46.3582 36.9512C46.0507 39.6416 46.0507 42.3583 46.3582 45.0487C46.4068 45.496 46.5724 45.9227 46.8383 46.2857C47.1041 46.6487 47.4609 46.9353 47.8726 47.1167L52.808 49.2922C53.042 50.1601 53.2983 50.9937 53.5768 51.7932L50.8374 56.521C50.6151 56.9051 50.4963 57.3404 50.4927 57.7842C50.4891 58.228 50.6008 58.6652 50.8169 59.0528C52.1349 61.406 53.7093 63.6061 55.5114 65.6128C55.8152 65.9559 56.2062 66.2105 56.6429 66.3494C57.0796 66.4884 57.5457 66.5066 57.9919 66.4021L63.1912 65.213C63.8344 65.7255 64.5058 66.238 65.2003 66.6967L65.7127 72.1882C65.7534 72.635 65.9107 73.0633 66.1688 73.4302C66.4269 73.7972 66.7769 74.0899 67.1836 74.2792C69.6002 75.4094 72.137 76.2622 74.7456 76.8212C75.1936 76.9167 75.6591 76.8896 76.093 76.7425C76.5269 76.5955 76.913 76.3341 77.2107 75.9858L80.7623 71.8679C81.5869 71.9114 82.4131 71.9114 83.2377 71.8679L86.7893 75.9858C87.0298 76.2647 87.3275 76.4885 87.6623 76.6419C87.997 76.7954 88.3609 76.8749 88.7291 76.875C88.9056 76.8748 89.0816 76.8568 89.2544 76.8212C91.8631 76.2626 94.4 75.4098 96.8164 74.2792C97.2231 74.0899 97.5731 73.7972 97.8312 73.4302C98.0893 73.0633 98.2466 72.635 98.2872 72.1882L98.7998 66.6967C99.4968 66.2278 100.168 65.7307 100.811 65.213L106.008 66.4021C106.454 66.5071 106.921 66.4892 107.357 66.3502C107.794 66.2112 108.185 65.9564 108.489 65.6128C110.291 63.6061 111.867 61.406 113.186 59.0528C113.401 58.6649 113.513 58.2277 113.509 57.7839C113.505 57.3401 113.385 56.9049 113.163 56.521L110.423 51.7932C110.71 50.9972 110.966 50.1635 111.192 49.2922L116.127 47.1167C116.539 46.9353 116.896 46.6487 117.162 46.2857C117.428 45.9227 117.593 45.496 117.642 45.0487C117.949 42.3583 117.949 39.6416 117.642 36.9512C117.593 36.5042 117.428 36.0778 117.163 35.7148C116.897 35.3518 116.541 35.065 116.13 34.8833V34.8833ZM112.678 43.05L107.974 45.123C107.608 45.2845 107.285 45.5292 107.031 45.8375C106.777 46.1458 106.599 46.5093 106.51 46.8989C106.199 48.315 105.771 49.7027 105.229 51.0475C105.079 51.4114 105.014 51.805 105.04 52.1978C105.066 52.5907 105.183 52.9722 105.38 53.3128L107.984 57.8074C107.274 58.9448 106.492 60.0361 105.644 61.0746L100.714 59.9471C100.318 59.8529 99.9045 59.8559 99.5096 59.9558C99.1147 60.0558 98.7499 60.2497 98.4461 60.5211C97.3781 61.4635 96.231 62.3122 95.0175 63.058C94.6798 63.2667 94.3952 63.5511 94.1862 63.8886C93.9772 64.2261 93.8495 64.6076 93.8131 65.0029L93.3237 70.2125C92.1274 70.7053 90.9009 71.1213 89.6516 71.4579L86.2794 67.5449C86.0167 67.2369 85.6838 66.9965 85.3087 66.8439C84.9337 66.6914 84.5275 66.6313 84.1243 66.6686C82.7104 66.7838 81.2895 66.7838 79.8757 66.6686C79.4725 66.6313 79.0663 66.6914 78.6913 66.8439C78.3162 66.9965 77.9833 67.2369 77.7206 67.5449L74.3484 71.4604C73.0991 71.1239 71.8726 70.7079 70.6763 70.215L70.1971 64.9901C70.1608 64.5948 70.033 64.2133 69.824 63.8758C69.615 63.5383 69.3304 63.2539 68.9927 63.0452C67.7804 62.2978 66.6334 61.4491 65.5641 60.5083C65.261 60.2368 64.8966 60.0427 64.5021 59.9427C64.1076 59.8428 63.6947 59.8399 63.2989 59.9343L58.3686 61.0618C57.521 60.0229 56.7396 58.9317 56.0291 57.7946L58.6326 53.3C58.8301 52.9594 58.9465 52.5779 58.9727 52.185C58.9989 51.7922 58.9343 51.3986 58.7838 51.0347C58.2378 49.6902 57.8049 48.3025 57.4897 46.8861C57.4011 46.4965 57.2227 46.133 56.9686 45.8247C56.7146 45.5163 56.3919 45.2717 56.0265 45.1102L51.3217 43.05C51.2731 42.3479 51.25 41.6739 51.25 41C51.25 40.326 51.2731 39.6649 51.3217 38.9628L56.0265 36.8897C56.3919 36.7283 56.7146 36.4836 56.9686 36.1753C57.2227 35.867 57.4011 35.5035 57.4897 35.1139C57.8049 33.6974 58.2378 32.3097 58.7838 30.9652C58.9343 30.6014 58.9989 30.2078 58.9727 29.815C58.9465 29.4221 58.8301 29.0406 58.6326 28.7L56.0291 24.2054C56.7391 23.068 57.5205 21.9767 58.3686 20.9382L63.2989 22.0657C63.6952 22.1597 64.1083 22.1566 64.5031 22.0566C64.898 21.9567 65.2628 21.7629 65.5667 21.4917C66.6347 20.5493 67.7818 19.7006 68.9953 18.9548C69.333 18.7461 69.6176 18.4617 69.8266 18.1242C70.0356 17.7867 70.1633 17.4052 70.1997 17.0099L70.6763 11.7875C71.8726 11.2946 73.0991 10.8787 74.3484 10.5421L77.7206 14.455C77.9811 14.7658 78.3137 15.0082 78.6893 15.1609C79.0649 15.3137 79.4722 15.3722 79.8757 15.3314C81.2895 15.2161 82.7104 15.2161 84.1243 15.3314C84.5278 15.3729 84.9353 15.3147 85.3111 15.1619C85.6868 15.0091 86.0193 14.7664 86.2794 14.455L89.6516 10.5395C90.9009 10.8761 92.1274 11.2921 93.3237 11.7849L93.8029 17.0099C93.8392 17.4052 93.967 17.7867 94.176 18.1242C94.385 18.4617 94.6696 18.7461 95.0073 18.9548C96.2196 19.7022 97.3666 20.5509 98.4359 21.4917C98.7395 21.7625 99.1039 21.9561 99.4982 22.056C99.8926 22.1559 100.305 22.1592 100.701 22.0657L105.631 20.9382C106.479 21.9771 107.26 23.0683 107.971 24.2054L105.367 28.7C105.17 29.0406 105.054 29.4221 105.027 29.815C105.001 30.2078 105.066 30.6014 105.216 30.9652C105.758 32.3101 106.186 33.6978 106.498 35.1139C106.586 35.5035 106.765 35.867 107.019 36.1753C107.273 36.4836 107.595 36.7283 107.961 36.8897L112.665 38.9628C112.714 39.6649 112.737 40.3389 112.737 41.0128C112.737 41.6867 112.727 42.335 112.678 43.05Z" fill="white"/>
<path d="M82 56.375C82.6719 56.3729 83.316 56.1069 83.7937 55.6344L96.9829 42.599C97.9164 41.6802 98.6577 40.5849 99.1637 39.3769C99.6697 38.1688 99.9303 36.8721 99.9303 35.5624C99.9303 34.2526 99.6697 32.956 99.1637 31.7479C98.6577 30.5398 97.9164 29.4445 96.9829 28.5258C95.0941 26.6709 92.5526 25.6317 89.9053 25.6317C87.258 25.6317 84.7165 26.6709 82.8277 28.5258L82 29.3509L81.1646 28.5258C79.2758 26.6709 76.7343 25.6317 74.087 25.6317C71.4397 25.6317 68.8982 26.6709 67.0094 28.5258C66.0761 29.4449 65.335 30.5405 64.8292 31.7488C64.3233 32.957 64.0628 34.2538 64.0628 35.5637C64.0628 36.8735 64.3233 38.1703 64.8292 39.3786C65.335 40.5868 66.0761 41.6824 67.0094 42.6016L80.2062 55.6344C80.6839 56.1069 81.3281 56.3729 82 56.375V56.375ZM69.1875 35.5624C69.1871 34.9305 69.313 34.3049 69.5576 33.7223C69.8023 33.1397 70.1608 32.6118 70.6122 32.1696C71.5401 31.26 72.7876 30.7505 74.087 30.7505C75.3863 30.7505 76.6339 31.26 77.5617 32.1696L80.2062 34.7757C80.6859 35.2498 81.3332 35.5158 82.0077 35.5158C82.6821 35.5158 83.3294 35.2498 83.8091 34.7757L86.4459 32.1696C87.3738 31.26 88.6213 30.7505 89.9207 30.7505C91.22 30.7505 92.4676 31.26 93.3954 32.1696C93.8466 32.6117 94.205 33.1394 94.4497 33.7218C94.6944 34.3041 94.8204 34.9294 94.8204 35.5611C94.8204 36.1928 94.6944 36.8181 94.4497 37.4004C94.205 37.9828 93.8466 38.5105 93.3954 38.9526L82 50.2096L70.6122 38.95C70.1615 38.5084 69.8033 37.9814 69.5586 37.3997C69.314 36.818 69.1878 36.1934 69.1875 35.5624V35.5624Z" fill="white"/>
<path d="M30.0633 114.8L15.5262 155.449C15.3878 155.836 15.3444 156.25 15.3996 156.657C15.4547 157.064 15.6069 157.452 15.8433 157.787C16.0797 158.123 16.3933 158.397 16.7578 158.587C17.1222 158.776 17.5268 158.875 17.9375 158.875H51.6036C52.2114 158.875 52.7994 158.659 53.2627 158.266C53.726 157.873 54.0344 157.327 54.1328 156.728L55.5371 148.146C55.817 146.423 56.5613 144.808 57.6901 143.476C58.8188 142.144 60.2893 141.145 61.9433 140.586L132.707 116.594C133.322 116.385 133.835 115.95 134.142 115.377L147.513 90.4562C148.111 89.3353 148.476 88.1049 148.585 86.8392C148.695 85.5735 148.547 84.2987 148.151 83.0916C147.766 81.8986 147.14 80.7972 146.313 79.8557C145.485 78.9142 144.473 78.1526 143.339 77.6181V77.6181C142.163 77.0971 140.887 76.8433 139.602 76.875C137.683 76.9098 135.794 77.3636 134.067 78.2046C132.341 79.0455 130.819 80.2534 129.609 81.7437L119.359 93.8926C118.122 95.3536 116.486 96.4222 114.651 96.9676L79.7066 107.428C79.3361 107.541 78.9462 107.577 78.5613 107.533C78.1764 107.489 77.8048 107.366 77.4695 107.171C77.1145 106.968 76.8056 106.692 76.5626 106.363C76.3196 106.033 76.1476 105.657 76.0576 105.257C75.866 104.502 75.9758 103.701 76.3636 103.025C76.7514 102.349 77.3869 101.85 78.1358 101.634L94.2795 97.1418C96.1353 96.4994 97.6928 95.2017 98.6596 93.4923C99.6263 91.7829 99.9359 89.7793 99.5301 87.8579C99.5164 86.8271 99.2736 85.8122 98.8193 84.8869C98.365 83.9615 97.7106 83.1487 96.9035 82.5074C96.0471 81.8771 95.0559 81.4546 94.0081 81.2731C92.9604 81.0917 91.8848 81.1563 90.8663 81.4619L55.6831 91.0713C49.82 92.6762 44.4302 95.6708 39.9704 99.8014C35.5106 103.932 32.1122 109.077 30.0633 114.8V114.8ZM92.2167 86.3972C92.475 86.3032 92.7514 86.2698 93.0247 86.2996C93.2979 86.3293 93.5607 86.4215 93.7926 86.5689C94.0109 86.7696 94.1803 87.0175 94.2878 87.2938C94.3953 87.5701 94.4381 87.8674 94.4128 88.1628C94.4127 88.3736 94.4386 88.5836 94.4896 88.7881C94.6746 89.4724 94.6022 90.2009 94.2863 90.8355C93.9704 91.4702 93.4328 91.967 92.7753 92.2321L76.7648 96.6831C75.2256 97.1252 73.8502 98.0095 72.8093 99.2265C71.7683 100.443 71.1078 101.939 70.9096 103.528C70.7115 105.118 70.9844 106.73 71.6946 108.165C72.4048 109.6 73.521 110.796 74.9045 111.602C75.843 112.15 76.8847 112.498 77.9642 112.625C79.0436 112.751 80.1376 112.654 81.1775 112.337L116.122 101.885C118.915 101.052 121.403 99.4201 123.279 97.1905L133.517 85.0442C134.248 84.1246 135.172 83.3757 136.223 82.8499C137.274 82.3241 138.428 82.0341 139.602 82C140.131 81.9769 140.659 82.0642 141.153 82.2562C141.656 82.4956 142.105 82.8355 142.471 83.2551C142.838 83.6747 143.115 84.165 143.285 84.6957C143.467 85.2413 143.535 85.8184 143.485 86.3914C143.436 86.9644 143.269 87.5211 142.995 88.027L130.103 112.066L60.2982 135.733C57.7642 136.589 55.5113 138.119 53.7816 140.16C52.052 142.2 50.911 144.673 50.4813 147.313L49.4255 153.75H21.5737L34.8987 116.514C36.6708 111.569 39.609 107.123 43.4644 103.555C47.3199 99.986 51.9788 97.3995 57.0464 96.0143L92.2167 86.3972Z" fill="white"/>
</svg>
