<svg width="102" height="103" viewBox="0 0 102 103" fill="none" xmlns="http://www.w3.org/2000/svg">
<mask id="path-2-inside-1" fill="white">
<path d="M71.5849 28.1174C71.7634 26.5443 71.7634 24.9557 71.5849 23.3826L67.7981 21.6944C67.5822 20.7168 67.2858 19.7591 66.912 18.8313L68.9982 15.1973C68.2379 13.8225 67.3292 12.5368 66.2888 11.3638L62.2822 12.2908C61.5469 11.6398 60.7584 11.053 59.925 10.5366L59.5425 6.30875C58.1506 5.64927 56.6887 5.15251 55.1852 4.82812L52.4551 8.02756C51.977 7.98572 51.4988 7.95192 51 7.95192C50.5012 7.95192 50.0262 7.98572 49.5449 8.02756L46.8148 4.82812C45.3107 5.15239 43.8483 5.64916 42.4559 6.30875L42.075 10.5366C41.244 11.0528 40.4581 11.6397 39.7258 12.2908L35.7191 11.3638C34.6788 12.5362 33.7701 13.8214 33.0098 15.1957L35.088 18.8297C34.7142 19.7575 34.4178 20.7152 34.2019 21.6928L30.4151 23.381C30.2366 24.9541 30.2366 26.5427 30.4151 28.1158L34.2019 29.8056C34.4178 30.7832 34.7142 31.7409 35.088 32.6687L33.0018 36.3027C33.7621 37.6775 34.6708 38.9632 35.7112 40.1362L39.7178 39.2092C40.4505 39.8598 41.2364 40.4466 42.067 40.9634L42.4495 45.1912C43.8419 45.8508 45.3044 46.3476 46.8084 46.6719L49.5385 43.4724C50.0167 43.5143 50.5028 43.5481 50.9936 43.5481C51.4845 43.5481 51.9674 43.5143 52.4487 43.4724L55.1852 46.6719C56.6893 46.3476 58.1517 45.8508 59.5441 45.1912L59.9266 40.9634C60.7576 40.4472 61.5435 39.8603 62.2758 39.2092L66.2825 40.1362C67.3228 38.9638 68.2315 37.6786 68.9918 36.3043L66.912 32.6703C67.2858 31.7425 67.5822 30.7848 67.7981 29.8072L71.5849 28.1174Z"/>
</mask>
<path d="M71.5849 28.1174C71.7634 26.5443 71.7634 24.9557 71.5849 23.3826L67.7981 21.6944C67.5822 20.7168 67.2858 19.7591 66.912 18.8313L68.9982 15.1973C68.2379 13.8225 67.3292 12.5368 66.2888 11.3638L62.2822 12.2908C61.5469 11.6398 60.7584 11.053 59.925 10.5366L59.5425 6.30875C58.1506 5.64927 56.6887 5.15251 55.1852 4.82812L52.4551 8.02756C51.977 7.98572 51.4988 7.95192 51 7.95192C50.5012 7.95192 50.0262 7.98572 49.5449 8.02756L46.8148 4.82812C45.3107 5.15239 43.8483 5.64916 42.4559 6.30875L42.075 10.5366C41.244 11.0528 40.4581 11.6397 39.7258 12.2908L35.7191 11.3638C34.6788 12.5362 33.7701 13.8214 33.0098 15.1957L35.088 18.8297C34.7142 19.7575 34.4178 20.7152 34.2019 21.6928L30.4151 23.381C30.2366 24.9541 30.2366 26.5427 30.4151 28.1158L34.2019 29.8056C34.4178 30.7832 34.7142 31.7409 35.088 32.6687L33.0018 36.3027C33.7621 37.6775 34.6708 38.9632 35.7112 40.1362L39.7178 39.2092C40.4505 39.8598 41.2364 40.4466 42.067 40.9634L42.4495 45.1912C43.8419 45.8508 45.3044 46.3476 46.8084 46.6719L49.5385 43.4724C50.0167 43.5143 50.5028 43.5481 50.9936 43.5481C51.4845 43.5481 51.9674 43.5143 52.4487 43.4724L55.1852 46.6719C56.6893 46.3476 58.1517 45.8508 59.5441 45.1912L59.9266 40.9634C60.7576 40.4472 61.5435 39.8603 62.2758 39.2092L66.2825 40.1362C67.3228 38.9638 68.2315 37.6786 68.9918 36.3043L66.912 32.6703C67.2858 31.7425 67.5822 30.7848 67.7981 29.8072L71.5849 28.1174Z" stroke="black" stroke-width="6" mask="url(#path-2-inside-1)"/>
<mask id="path-3-inside-2" fill="white">
<path d="M59.203 19.0598C58.3278 18.1904 57.1492 17.7031 55.9215 17.7031C54.6937 17.7031 53.5152 18.1904 52.64 19.0598L51 20.6966L49.36 19.0598C48.4848 18.1904 47.3062 17.7031 46.0785 17.7031C44.8507 17.7031 43.6722 18.1904 42.797 19.0598C42.3666 19.4874 42.0249 19.9972 41.7916 20.5595C41.5583 21.1217 41.4382 21.7253 41.4382 22.3349C41.4382 22.9445 41.5583 23.5481 41.7916 24.1103C42.0249 24.6726 42.3666 25.1824 42.797 25.61L44.4369 27.2467L51 33.7969L57.5631 27.2467L59.203 25.61C59.6333 25.1824 59.9751 24.6726 60.2084 24.1103C60.4416 23.5481 60.5618 22.9445 60.5618 22.3349C60.5618 21.7253 60.4416 21.1217 60.2084 20.5595C59.9751 19.9972 59.6333 19.4874 59.203 19.0598V19.0598Z"/>
</mask>
<path d="M59.203 19.0598C58.3278 18.1904 57.1492 17.7031 55.9215 17.7031C54.6937 17.7031 53.5152 18.1904 52.64 19.0598L51 20.6966L49.36 19.0598C48.4848 18.1904 47.3062 17.7031 46.0785 17.7031C44.8507 17.7031 43.6722 18.1904 42.797 19.0598C42.3666 19.4874 42.0249 19.9972 41.7916 20.5595C41.5583 21.1217 41.4382 21.7253 41.4382 22.3349C41.4382 22.9445 41.5583 23.5481 41.7916 24.1103C42.0249 24.6726 42.3666 25.1824 42.797 25.61L44.4369 27.2467L51 33.7969L57.5631 27.2467L59.203 25.61C59.6333 25.1824 59.9751 24.6726 60.2084 24.1103C60.4416 23.5481 60.5618 22.9445 60.5618 22.3349C60.5618 21.7253 60.4416 21.1217 60.2084 20.5595C59.9751 19.9972 59.6333 19.4874 59.203 19.0598V19.0598Z" stroke="black" stroke-width="6" mask="url(#path-3-inside-2)"/>
<mask id="path-4-inside-3" fill="white">
<path d="M88.4675 50.2012C87.9499 49.9778 87.3901 49.8718 86.8275 49.8906C85.8646 49.9129 84.9181 50.1466 84.0536 50.5754C83.1892 51.0042 82.4275 51.6179 81.8215 52.3739L75.4561 60.0023C74.4876 61.1612 73.2054 62.0097 71.7666 62.4437L50.031 69.0116C49.5845 69.1433 49.116 69.1813 48.6544 69.1232C48.1928 69.0651 47.7479 68.9122 47.3471 68.6738C46.9463 68.4354 46.5982 68.1166 46.3241 67.7371C46.0499 67.3576 45.8557 66.9254 45.7534 66.4672C45.5422 65.5879 45.6756 64.6603 46.1259 63.8781C46.5762 63.0959 47.3084 62.5197 48.1695 62.2699L58.1288 59.4744C58.9371 59.1917 59.6104 58.6124 60.0152 57.8515C60.42 57.0907 60.5266 56.2039 60.3139 55.3673C60.3487 54.9393 60.2776 54.5093 60.1068 54.116C59.9361 53.7227 59.6711 53.3785 59.3357 53.1144C59.0003 52.8503 58.6052 52.6746 58.1858 52.6032C57.7665 52.5318 57.3361 52.567 56.9335 52.7054L35.0529 58.7422C31.6527 59.6796 28.5267 61.4319 25.9405 63.8502C23.3543 66.2684 21.3842 69.2812 20.1976 72.6327L11.1562 98.1719H32.0949L32.9699 92.7821C33.1918 91.4122 33.7787 90.129 34.6675 89.0702C35.5564 88.0113 36.7138 87.2165 38.0157 86.7711L82.0255 71.7057L90.3417 56.0481C90.6115 55.5426 90.777 54.9871 90.8285 54.4152C90.8799 53.8433 90.8161 53.2668 90.641 52.7205C90.4659 52.1742 90.183 51.6693 89.8095 51.2363C89.4359 50.8034 88.9794 50.4512 88.4675 50.2012Z"/>
</mask>
<path d="M88.4675 50.2012C87.9499 49.9778 87.3901 49.8718 86.8275 49.8906C85.8646 49.9129 84.9181 50.1466 84.0536 50.5754C83.1892 51.0042 82.4275 51.6179 81.8215 52.3739L75.4561 60.0023C74.4876 61.1612 73.2054 62.0097 71.7666 62.4437L50.031 69.0116C49.5845 69.1433 49.116 69.1813 48.6544 69.1232C48.1928 69.0651 47.7479 68.9122 47.3471 68.6738C46.9463 68.4354 46.5982 68.1166 46.3241 67.7371C46.0499 67.3576 45.8557 66.9254 45.7534 66.4672C45.5422 65.5879 45.6756 64.6603 46.1259 63.8781C46.5762 63.0959 47.3084 62.5197 48.1695 62.2699L58.1288 59.4744C58.9371 59.1917 59.6104 58.6124 60.0152 57.8515C60.42 57.0907 60.5266 56.2039 60.3139 55.3673C60.3487 54.9393 60.2776 54.5093 60.1068 54.116C59.9361 53.7227 59.6711 53.3785 59.3357 53.1144C59.0003 52.8503 58.6052 52.6746 58.1858 52.6032C57.7665 52.5318 57.3361 52.567 56.9335 52.7054L35.0529 58.7422C31.6527 59.6796 28.5267 61.4319 25.9405 63.8502C23.3543 66.2684 21.3842 69.2812 20.1976 72.6327L11.1562 98.1719H32.0949L32.9699 92.7821C33.1918 91.4122 33.7787 90.129 34.6675 89.0702C35.5564 88.0113 36.7138 87.2165 38.0157 86.7711L82.0255 71.7057L90.3417 56.0481C90.6115 55.5426 90.777 54.9871 90.8285 54.4152C90.8799 53.8433 90.8161 53.2668 90.641 52.7205C90.4659 52.1742 90.183 51.6693 89.8095 51.2363C89.4359 50.8034 88.9794 50.4512 88.4675 50.2012Z" stroke="black" stroke-width="6" mask="url(#path-4-inside-3)"/>
</svg>
