<svg width="164" height="164" viewBox="0 0 164 164" fill="none" xmlns="http://www.w3.org/2000/svg">
<path d="M107.545 34.869L107.71 35.6086L108.403 35.9147L113.693 38.2501C113.852 40.08 113.852 41.9203 113.693 43.7502L108.402 46.0881L107.71 46.3942L107.545 47.1336C107.216 48.6086 106.764 50.0536 106.195 51.4535L105.918 52.1336L106.285 52.7693L109.196 57.8063C108.268 59.3715 107.209 60.8558 106.032 62.2435L100.465 60.9681L99.7154 60.7964L99.1384 61.3044C98.025 62.2848 96.8301 63.1684 95.5666 63.9457L94.9271 64.3391L94.8588 65.0868L94.3233 70.9486C92.6924 71.6596 91.0033 72.2286 89.2747 72.6494L85.4645 68.2378L84.9638 67.6581L84.2006 67.7238C83.4399 67.7893 82.7141 67.8387 81.9897 67.8387C81.2652 67.8387 80.534 67.7892 79.7797 67.7239L79.0149 67.6576L78.5138 68.2391L74.7139 72.6491C72.9857 72.2283 71.297 71.6594 69.6665 70.9486L69.131 65.0868L69.0627 64.3398L68.424 63.9462C67.1605 63.1678 65.9651 62.2838 64.8506 61.3037L64.2738 60.7965L63.5251 60.9681L57.9584 62.2435C56.7811 60.8553 55.7225 59.3706 54.7939 57.8051L57.7137 52.7685L58.0826 52.1322L57.8054 51.4509C57.2359 50.051 56.7842 48.606 56.4553 47.131L56.2904 46.3917L55.5976 46.0855L50.3074 43.7477C50.1476 41.9178 50.1475 40.0774 50.3073 38.2476L55.5971 35.9122L56.2903 35.6061L56.4553 34.8664C56.7842 33.3914 57.2359 31.9464 57.8054 30.5465L58.082 29.8667L57.715 29.2311L54.806 24.1939C55.7347 22.6287 56.7935 21.1443 57.971 19.7565L63.5379 21.0319L64.2872 21.2036L64.8641 20.6956C65.9775 19.7152 67.1725 18.8316 68.436 18.0543L69.0758 17.6607L69.1438 16.9126L69.6771 11.0512C71.3075 10.3405 72.9961 9.77163 74.7241 9.35089L78.5241 13.7609L79.0248 14.342L79.7891 14.2762C80.5504 14.2107 81.2632 14.1613 82 14.1613C82.737 14.1613 83.4551 14.2107 84.21 14.2761L84.9748 14.3424L85.4759 13.7609L89.2758 9.351C91.0031 9.77185 92.691 10.3407 94.3207 11.0513L94.8562 16.9132L94.9246 17.6619L95.5655 18.0552C96.8332 18.8331 98.0327 19.7171 99.151 20.6977L99.7276 21.2032L100.475 21.0319L106.042 19.7565C107.219 21.1447 108.277 22.6294 109.206 24.1949L106.286 29.2315L105.917 29.8678L106.195 30.5491C106.764 31.949 107.216 33.394 107.545 34.869Z" stroke="black" stroke-width="3"/>
<path d="M82 35.0627L80.9456 34.0206L78.3113 31.417C78.3109 31.4166 78.3105 31.4162 78.3101 31.4159C77.1835 30.3082 75.6669 29.6875 74.087 29.6875C72.5066 29.6875 70.9895 30.3086 69.8629 31.4169L82 35.0627ZM82 35.0627L83.0544 34.0206M82 35.0627L83.0544 34.0206M83.0544 34.0206L85.6888 31.417C85.6893 31.4165 85.6898 31.416 85.6903 31.4155C86.8168 30.3081 88.3333 29.6875 89.913 29.6875C91.4934 29.6875 93.0105 30.3086 94.1371 31.4169L83.0544 34.0206ZM94.1373 31.417C94.6872 31.9582 95.124 32.6034 95.4221 33.3151C95.7203 34.0268 95.8739 34.7907 95.8739 35.5624C95.8739 36.334 95.7203 37.098 95.4221 37.8097C95.124 38.5214 94.6871 39.1667 94.1371 39.7079L94.1348 39.7102L91.498 42.3163L92.5524 43.3831L91.498 42.3163L82 51.7035L72.5021 42.3163L71.4476 43.3831L72.5021 42.3163L69.8652 39.7102L69.8629 39.7079C69.3129 39.1667 68.8761 38.5214 68.5779 37.8097C68.2797 37.098 68.1262 36.334 68.1262 35.5624C68.1262 34.7907 68.2797 34.0268 68.5779 33.3151C68.876 32.6034 69.3128 31.9582 69.8628 31.417H94.1373Z" stroke="black" stroke-width="3"/>
<path d="M20.0667 154.812L33.887 116.153C33.887 116.153 33.887 116.153 33.887 116.153C35.7137 111.044 38.7463 106.451 42.7274 102.765C46.7085 99.0786 51.5205 96.4074 56.7547 94.9783L56.755 94.9782L91.9355 85.3663L91.9801 85.3541L92.0238 85.3392C92.4354 85.199 92.8755 85.1635 93.3043 85.2358C93.7331 85.3081 94.1372 85.4859 94.4801 85.7533C94.823 86.0208 95.094 86.3693 95.2686 86.7676C95.4432 87.1658 95.516 87.6013 95.4803 88.0347L95.4596 88.2863L95.5224 88.5308C95.7708 89.4981 95.6463 90.5235 95.1737 91.4033C94.7078 92.2704 93.9373 92.9336 93.0117 93.2655L77.0473 97.703L77.0473 97.703L77.0349 97.7066C75.2784 98.2111 73.7848 99.375 72.8664 100.955C71.9499 102.532 71.6769 104.401 72.1037 106.173C72.3141 107.098 72.7109 107.971 73.2699 108.737C73.8314 109.507 74.5445 110.154 75.3655 110.637C76.1864 111.121 77.0977 111.431 78.0432 111.549C78.9886 111.667 79.9482 111.59 80.8627 111.322L80.8627 111.322L80.872 111.32L115.819 100.862C115.819 100.862 115.819 100.862 115.819 100.862C118.412 100.087 120.723 98.5732 122.468 96.5051L122.469 96.5042L132.703 84.358L132.713 84.3467L132.722 84.3352C133.559 83.3008 134.612 82.461 135.806 81.8742C137.001 81.2874 138.309 80.9676 139.639 80.9371L139.647 80.9369L139.655 80.9367C140.328 80.9144 140.999 81.0376 141.62 81.2978C142.248 81.6068 142.809 82.0377 143.269 82.5655C143.736 83.1022 144.09 83.7281 144.309 84.4053C144.529 85.0825 144.608 85.7971 144.544 86.506C144.48 87.215 144.272 87.9035 143.935 88.5301L143.933 88.5327L130.842 112.942L60.6419 136.739C60.6419 136.739 60.6418 136.739 60.6417 136.739C58.2908 137.536 56.2008 138.957 54.5957 140.851C52.9906 142.744 51.9309 145.039 51.5301 147.489L50.3295 154.812H20.0667Z" stroke="black" stroke-width="3"/>
</svg>
