<svg width="198" height="125" viewBox="0 0 198 125" fill="none" xmlns="http://www.w3.org/2000/svg">
<path d="M152.188 69.461L162.618 82.6029M99.1913 31.276V122.618V31.276ZM3.18198 123.233H189.761H3.18198ZM99.1913 59.2481L120.797 37.6425L99.1913 59.2481ZM99.3608 48.2554L86.011 31.4342L99.3608 48.2554ZM86.0087 54.5766L99.3585 71.3978L86.0087 54.5766ZM35.1994 51.2567V122.618V51.2567ZM35.1994 73.1086L52.0793 56.2287L35.1994 73.1086ZM24.9006 51.381L35.3305 64.5229L24.9006 51.381ZM35.3305 82.6029L24.9006 69.461L35.3305 82.6029ZM162.487 28.3832C154.234 28.3832 146.699 31.4139 140.893 36.3995C137.112 16.8053 119.891 2 99.1913 2C78.2999 2 60.9679 17.0878 57.4039 36.9554C51.5189 31.6467 43.749 28.3855 35.1971 28.3855C16.8618 28.3855 2 43.2495 2 61.5826C2 79.918 16.864 94.7798 35.1971 94.7798C49.9278 94.7798 62.4008 85.177 66.74 71.8973C74.5347 81.1181 86.1692 86.985 99.189 86.985C111.942 86.985 123.353 81.3396 131.143 72.4419C135.647 85.4347 147.962 94.7798 162.487 94.7798C180.823 94.7798 195.684 79.9158 195.684 61.5826C195.687 43.245 180.823 28.3832 162.487 28.3832ZM162.487 122.616V51.2567V122.616ZM179.367 56.231L162.487 73.1109L179.367 56.231ZM162.62 64.5206L152.191 51.3787L162.62 64.5206Z" stroke="black" stroke-width="3" stroke-miterlimit="10" stroke-linejoin="round"/>
</svg>
