<svg width="200" height="127" viewBox="0 0 200 127" fill="none" xmlns="http://www.w3.org/2000/svg">
<path d="M153.188 70.461L163.618 83.6029M100.191 32.276V123.618V32.276ZM4.18198 124.233H190.761H4.18198ZM100.191 60.2481L121.797 38.6425L100.191 60.2481ZM100.361 49.2554L87.011 32.4342L100.361 49.2554ZM87.0087 55.5766L100.359 72.3978L87.0087 55.5766ZM36.1994 52.2567V123.618V52.2567ZM36.1994 74.1086L53.0793 57.2287L36.1994 74.1086ZM25.9006 52.381L36.3305 65.5229L25.9006 52.381ZM36.3305 83.6029L25.9006 70.461L36.3305 83.6029ZM163.487 29.3832C155.234 29.3832 147.699 32.4139 141.893 37.3995C138.112 17.8053 120.891 3 100.191 3C79.2999 3 61.9679 18.0878 58.4039 37.9554C52.5189 32.6467 44.749 29.3855 36.1971 29.3855C17.8618 29.3855 3 44.2495 3 62.5826C3 80.918 17.864 95.7798 36.1971 95.7798C50.9278 95.7798 63.4008 86.177 67.74 72.8973C75.5347 82.1181 87.1692 87.985 100.189 87.985C112.942 87.985 124.353 82.3396 132.143 73.4419C136.647 86.4347 148.962 95.7798 163.487 95.7798C181.823 95.7798 196.684 80.9158 196.684 62.5826C196.687 44.245 181.823 29.3832 163.487 29.3832ZM163.487 123.616V52.2567V123.616ZM180.367 57.231L163.487 74.1109L180.367 57.231ZM163.62 65.5206L153.191 52.3787L163.62 65.5206Z" stroke="white" stroke-width="5" stroke-miterlimit="10" stroke-linejoin="round"/>
</svg>
