<svg width="214" height="139" viewBox="0 0 214 139" fill="none" xmlns="http://www.w3.org/2000/svg">
<path d="M8.94922 122.357H201.461H204.051C205.943 122.357 207.757 123.109 209.094 124.447C210.432 125.784 211.184 127.598 211.184 129.49C211.184 131.382 210.432 133.196 209.094 134.534C207.757 135.872 205.943 136.623 204.051 136.623H8.94922C7.05748 136.623 5.24322 135.872 3.90556 134.534C2.5679 133.196 1.81641 131.382 1.81641 129.49C1.81641 127.598 2.5679 125.784 3.90556 124.447C5.24322 123.109 7.05748 122.357 8.94922 122.357Z" stroke="black" stroke-width="3"/>
<path d="M93.3336 80.4967L93.3333 80.4964C91.1516 77.7802 91.1347 73.3178 93.2204 70.7215C93.2206 70.7213 93.2207 70.7211 93.2209 70.721L104.059 57.2457L104.059 57.2451C105.063 55.9963 106.327 55.4548 107.529 55.4724C108.736 55.49 110.033 56.0742 111.076 57.38L111.078 57.3819L121.653 70.5729L121.653 70.573C123.832 73.2907 123.852 77.754 121.766 80.3493L121.766 80.3495L110.941 93.8252C110.941 93.8252 110.941 93.8253 110.941 93.8253C109.937 95.0741 108.673 95.6155 107.471 95.5979C106.264 95.5803 104.967 94.9961 103.924 93.6903L103.922 93.6877L93.3336 80.4967Z" stroke="black" stroke-width="3"/>
<mask id="path-3-inside-1" fill="white">
<path d="M12.54 120.857V50.3748C10.1548 50.3746 7.83157 49.6145 5.90754 48.2047C3.98351 46.7948 2.55871 44.8087 1.83987 42.5343C1.12103 40.2599 1.14554 37.8156 1.90984 35.5561C2.67414 33.2966 4.13848 31.3394 6.09039 29.9684C8.04231 28.5975 10.3803 27.8841 12.7651 27.9317C15.1499 27.9794 17.4574 28.7857 19.353 30.2336C21.2486 31.6814 22.6335 33.6956 23.3069 35.9839C23.9803 38.2721 23.9071 40.7154 23.098 42.9592L69.331 59.6335L100.552 20.0348C98.7203 18.5906 97.3844 16.6118 96.7297 14.3734C96.0749 12.135 96.1338 9.74825 96.898 7.54485C97.6623 5.34145 99.0941 3.43089 100.994 2.07873C102.895 0.726576 105.169 0 107.501 0C109.833 0 112.107 0.726576 114.008 2.07873C115.908 3.43089 117.34 5.34145 118.104 7.54485C118.868 9.74825 118.927 12.135 118.272 14.3734C117.617 16.6118 116.282 18.5906 114.45 20.0348L145.671 59.6335L191.904 42.9592C191.095 40.7154 191.022 38.2721 191.695 35.9839C192.368 33.6956 193.753 31.6814 195.649 30.2336C197.544 28.7857 199.852 27.9794 202.237 27.9317C204.622 27.8841 206.96 28.5975 208.912 29.9684C210.863 31.3394 212.328 33.2966 213.092 35.5561C213.856 37.8156 213.881 40.2599 213.162 42.5343C212.443 44.8087 211.018 46.7948 209.094 48.2047C207.17 49.6145 204.847 50.3746 202.462 50.3748V120.857"/>
</mask>
<path d="M12.54 50.3748H15.54V47.375L12.5402 47.3748L12.54 50.3748ZM23.098 42.9592L20.2758 41.9415L19.2582 44.7635L22.0802 45.7813L23.098 42.9592ZM69.331 59.6335L68.3132 62.4556L70.3477 63.1893L71.6868 61.4909L69.331 59.6335ZM100.552 20.0348L102.907 21.8922L104.765 19.5366L102.409 17.6792L100.552 20.0348ZM107.501 0L107.501 3L107.501 0ZM114.45 20.0348L112.593 17.6792L110.237 19.5366L112.095 21.8922L114.45 20.0348ZM145.671 59.6335L143.315 61.4909L144.654 63.1893L146.689 62.4556L145.671 59.6335ZM191.904 42.9592L192.922 45.7813L195.744 44.7635L194.726 41.9415L191.904 42.9592ZM202.462 50.3748L202.462 47.3748L199.462 47.375V50.3748H202.462ZM15.54 120.857V50.3748H9.54003V120.857H15.54ZM12.5402 47.3748C10.7926 47.3747 9.09042 46.8178 7.68071 45.7848L4.13437 50.6246C6.57272 52.4113 9.51693 53.3746 12.5398 53.3748L12.5402 47.3748ZM7.68071 45.7848C6.271 44.7518 5.22708 43.2966 4.7004 41.6302L-1.02065 43.4384C-0.109655 46.3207 1.69601 48.8379 4.13437 50.6246L7.68071 45.7848ZM4.7004 41.6302C4.17372 39.9638 4.19167 38.1729 4.75166 36.5174L-0.93198 34.5949C-1.90059 37.4584 -1.93165 40.556 -1.02065 43.4384L4.7004 41.6302ZM4.75166 36.5174C5.31165 34.8619 6.38455 33.4279 7.81469 32.4234L4.3661 27.5135C1.89241 29.2509 0.0366311 31.7313 -0.93198 34.5949L4.75166 36.5174ZM7.81469 32.4234C9.24482 31.4189 10.9578 30.8962 12.7051 30.9311L12.825 24.9323C9.80273 24.8719 6.8398 25.776 4.3661 27.5135L7.81469 32.4234ZM12.7051 30.9311C14.4524 30.9661 16.1431 31.5568 17.532 32.6176L21.174 27.8495C18.7718 26.0145 15.8473 24.9928 12.825 24.9323L12.7051 30.9311ZM17.532 32.6176C18.9208 33.6785 19.9356 35.1542 20.4289 36.8308L26.1849 35.1369C25.3315 32.237 23.5763 29.6844 21.174 27.8495L17.532 32.6176ZM20.4289 36.8308C20.9223 38.5073 20.8687 40.2975 20.2758 41.9415L25.9201 43.9769C26.9455 41.1333 27.0383 38.0368 26.1849 35.1369L20.4289 36.8308ZM22.0802 45.7813L68.3132 62.4556L70.3488 56.8114L24.1158 40.1371L22.0802 45.7813ZM71.6868 61.4909L102.907 21.8922L98.1957 18.1774L66.9751 57.7761L71.6868 61.4909ZM102.409 17.6792C101.068 16.621 100.089 15.1712 99.609 13.5312L93.8503 15.2157C94.6801 18.0524 96.3731 20.5602 98.6938 22.3904L102.409 17.6792ZM99.609 13.5312C99.1293 11.8911 99.1724 10.1424 99.7324 8.52799L94.0637 6.56171C93.0951 9.35412 93.0205 12.3789 93.8503 15.2157L99.609 13.5312ZM99.7324 8.52799C100.292 6.91359 101.341 5.51376 102.734 4.52305L99.255 -0.365589C96.8468 1.34802 95.0323 3.76931 94.0637 6.56171L99.7324 8.52799ZM102.734 4.52305C104.126 3.53235 105.792 3 107.501 3L107.501 -3C104.545 -3 101.663 -2.0792 99.255 -0.365589L102.734 4.52305ZM107.501 3C109.21 3 110.876 3.53235 112.268 4.52305L115.747 -0.365589C113.339 -2.0792 110.457 -3 107.501 -3L107.501 3ZM112.268 4.52305C113.661 5.51376 114.71 6.91359 115.27 8.52799L120.938 6.56171C119.97 3.76931 118.155 1.34802 115.747 -0.365589L112.268 4.52305ZM115.27 8.52799C115.83 10.1424 115.873 11.8911 115.393 13.5312L121.152 15.2157C121.981 12.3789 121.907 9.35413 120.938 6.56171L115.27 8.52799ZM115.393 13.5312C114.913 15.1712 113.934 16.621 112.593 17.6792L116.308 22.3904C118.629 20.5602 120.322 18.0524 121.152 15.2157L115.393 13.5312ZM112.095 21.8922L143.315 61.4909L148.027 57.7761L116.806 18.1774L112.095 21.8922ZM146.689 62.4556L192.922 45.7813L190.886 40.1371L144.653 56.8114L146.689 62.4556ZM194.726 41.9415C194.133 40.2975 194.08 38.5074 194.573 36.8308L188.817 35.1369C187.964 38.0368 188.056 41.1333 189.082 43.9769L194.726 41.9415ZM194.573 36.8308C195.066 35.1542 196.081 33.6785 197.47 32.6176L193.828 27.8495C191.426 29.6844 189.67 32.237 188.817 35.1369L194.573 36.8308ZM197.47 32.6176C198.859 31.5568 200.55 30.9661 202.297 30.9311L202.177 24.9323C199.155 24.9928 196.23 26.0145 193.828 27.8495L197.47 32.6176ZM202.297 30.9311C204.044 30.8962 205.757 31.4189 207.187 32.4234L210.636 27.5135C208.162 25.776 205.199 24.8719 202.177 24.9323L202.297 30.9311ZM207.187 32.4234C208.617 33.4279 209.69 34.8619 210.25 36.5174L215.934 34.5949C214.965 31.7313 213.11 29.2509 210.636 27.5135L207.187 32.4234ZM210.25 36.5174C210.81 38.1729 210.828 39.9638 210.302 41.6302L216.023 43.4384C216.934 40.556 216.903 37.4584 215.934 34.5949L210.25 36.5174ZM210.302 41.6302C209.775 43.2966 208.731 44.7518 207.321 45.7848L210.868 50.6246C213.306 48.8379 215.112 46.3207 216.023 43.4384L210.302 41.6302ZM207.321 45.7848C205.912 46.8177 204.209 47.3747 202.462 47.3748L202.462 53.3748C205.485 53.3746 208.429 52.4113 210.868 50.6246L207.321 45.7848ZM199.462 50.3748V120.857H205.462V50.3748H199.462Z" fill="black" mask="url(#path-3-inside-1)"/>
<path d="M44.0804 93.1358C42.7301 94.0385 41.1424 94.5205 39.5181 94.5208C37.3436 94.5167 35.2591 93.652 33.7201 92.1157C32.1811 90.5795 31.3127 88.4966 31.3047 86.3221C31.3021 84.6978 31.7812 83.1092 32.6815 81.7572C33.5821 80.4049 34.8636 79.35 36.3639 78.7263C37.8642 78.1025 39.5158 77.9378 41.1097 78.253C42.7036 78.5682 44.1682 79.3492 45.3181 80.497C46.468 81.6449 47.2516 83.1081 47.5696 84.7014C47.8877 86.2948 47.7259 87.9467 47.1048 89.4481C46.4837 90.9495 45.4312 92.2328 44.0804 93.1358Z" stroke="black" stroke-width="3"/>
<path d="M80.2757 103.539C78.9254 104.442 77.3377 104.924 75.7135 104.924C73.5389 104.92 71.4544 104.055 69.9154 102.519C68.3764 100.983 67.5081 98.8996 67.5 96.7252C67.4974 95.1009 67.9765 93.5122 68.8769 92.1603C69.7775 90.8079 71.059 89.7531 72.5592 89.1293C74.0595 88.5055 75.7111 88.3408 77.305 88.656C78.8989 88.9712 80.3635 89.7522 81.5134 90.9001C82.6634 92.0479 83.4469 93.5111 83.765 95.1045C84.083 96.6978 83.9212 98.3497 83.3001 99.8511C82.679 101.352 81.6265 102.636 80.2757 103.539Z" stroke="black" stroke-width="3"/>
<path d="M180.047 93.1358C178.697 94.0385 177.109 94.5205 175.485 94.5208C173.31 94.5167 171.226 93.652 169.687 92.1157C168.148 90.5795 167.28 88.4966 167.271 86.3221C167.269 84.6978 167.748 83.1092 168.648 81.7572C169.549 80.4049 170.83 79.35 172.331 78.7263C173.831 78.1025 175.483 77.9378 177.077 78.253C178.67 78.5682 180.135 79.3492 181.285 80.497C182.435 81.6449 183.218 83.1081 183.536 84.7014C183.854 86.2948 183.693 87.9467 183.072 89.4481C182.45 90.9495 181.398 92.2328 180.047 93.1358Z" stroke="black" stroke-width="3"/>
<path d="M144.276 103.539C142.925 104.442 141.338 104.924 139.713 104.924C137.539 104.92 135.454 104.055 133.915 102.519C132.376 100.983 131.508 98.8996 131.5 96.7252C131.497 95.1009 131.977 93.5122 132.877 92.1603C133.777 90.8079 135.059 89.7531 136.559 89.1293C138.06 88.5055 139.711 88.3408 141.305 88.656C142.899 88.9712 144.364 89.7522 145.513 90.9001C146.663 92.0479 147.447 93.5111 147.765 95.1045C148.083 96.6978 147.921 98.3497 147.3 99.8511C146.679 101.352 145.627 102.636 144.276 103.539Z" stroke="black" stroke-width="3"/>
</svg>
