<svg width="214" height="139" viewBox="0 0 214 139" fill="none" xmlns="http://www.w3.org/2000/svg">
<path d="M8.94922 123.357H201.461H204.051C205.677 123.357 207.237 124.004 208.387 125.154C209.537 126.304 210.184 127.864 210.184 129.49C210.184 131.117 209.537 132.677 208.387 133.827C207.237 134.977 205.677 135.623 204.051 135.623H8.94922C7.32269 135.623 5.76279 134.977 4.61267 133.827C3.46254 132.677 2.81641 131.117 2.81641 129.49C2.81641 127.864 3.46254 126.304 4.61267 125.154C5.76279 124.004 7.32269 123.357 8.94922 123.357Z" stroke="white" stroke-width="5"/>
<path d="M39.5166 96.0208C44.8803 96.0208 49.2285 91.6726 49.2285 86.3089C49.2285 80.9451 44.8803 76.597 39.5166 76.597C34.1529 76.597 29.8047 80.9451 29.8047 86.3089C29.8047 91.6726 34.1529 96.0208 39.5166 96.0208Z" fill="#CBE557"/>
<path fill-rule="evenodd" clip-rule="evenodd" d="M92.0516 69.7814C89.5092 72.9453 89.5567 78.1897 92.1638 81.4357L102.752 94.6266C105.342 97.8682 109.568 97.9287 112.11 94.7647L122.935 81.2889C125.478 78.125 125.426 72.8806 122.823 69.6346L112.248 56.4437C109.658 53.2021 105.432 53.1416 102.89 56.3056L92.0516 69.7814Z" fill="white"/>
<path d="M175.483 96.0208C180.847 96.0208 185.195 91.6726 185.195 86.3089C185.195 80.9451 180.847 76.597 175.483 76.597C170.12 76.597 165.771 80.9451 165.771 86.3089C165.771 91.6726 170.12 96.0208 175.483 96.0208Z" fill="#CBE557"/>
<mask id="path-5-inside-1" fill="white">
<path d="M12.54 120.857V50.3748C10.1548 50.3746 7.83157 49.6145 5.90754 48.2047C3.98351 46.7948 2.55871 44.8087 1.83987 42.5343C1.12103 40.2599 1.14554 37.8156 1.90984 35.5561C2.67414 33.2966 4.13848 31.3394 6.09039 29.9684C8.04231 28.5975 10.3803 27.8841 12.7651 27.9317C15.1499 27.9794 17.4574 28.7857 19.353 30.2336C21.2486 31.6814 22.6335 33.6956 23.3069 35.9839C23.9803 38.2721 23.9071 40.7154 23.098 42.9592L69.331 59.6335L100.552 20.0348C98.7203 18.5906 97.3844 16.6118 96.7297 14.3734C96.0749 12.135 96.1338 9.74825 96.898 7.54485C97.6623 5.34145 99.0941 3.43089 100.994 2.07873C102.895 0.726576 105.169 0 107.501 0C109.833 0 112.107 0.726576 114.008 2.07873C115.908 3.43089 117.34 5.34145 118.104 7.54485C118.868 9.74825 118.927 12.135 118.272 14.3734C117.617 16.6118 116.282 18.5906 114.45 20.0348L145.671 59.6335L191.904 42.9592C191.095 40.7154 191.022 38.2721 191.695 35.9839C192.368 33.6956 193.753 31.6814 195.649 30.2336C197.544 28.7857 199.852 27.9794 202.237 27.9317C204.622 27.8841 206.96 28.5975 208.912 29.9684C210.863 31.3394 212.328 33.2966 213.092 35.5561C213.856 37.8156 213.881 40.2599 213.162 42.5343C212.443 44.8087 211.018 46.7948 209.094 48.2047C207.17 49.6145 204.847 50.3746 202.462 50.3748V120.857"/>
</mask>
<path d="M12.54 50.3748H17.54V45.3751L12.5404 45.3748L12.54 50.3748ZM23.098 42.9592L18.3944 41.2631L16.6984 45.9664L21.4016 47.6627L23.098 42.9592ZM69.331 59.6335L67.6346 64.3369L71.0256 65.5599L73.2574 62.7292L69.331 59.6335ZM100.552 20.0348L104.478 23.1305L107.573 19.2045L103.648 16.1087L100.552 20.0348ZM107.501 0L107.501 5L107.501 0ZM114.45 20.0348L111.354 16.1087L107.429 19.2045L110.524 23.1305L114.45 20.0348ZM145.671 59.6335L141.745 62.7292L143.976 65.5599L147.367 64.3369L145.671 59.6335ZM191.904 42.9592L193.6 47.6627L198.304 45.9664L196.607 41.2631L191.904 42.9592ZM202.462 50.3748L202.462 45.3748L197.462 45.3751V50.3748H202.462ZM17.54 120.857V50.3748H7.54003V120.857H17.54ZM12.5404 45.3748C11.2178 45.3747 9.92965 44.9532 8.86283 44.1715L2.95225 52.2378C5.73349 54.2758 9.09172 55.3746 12.5397 55.3748L12.5404 45.3748ZM8.86283 44.1715C7.796 43.3898 7.00599 42.2885 6.60742 41.0274L-2.92767 44.0411C-1.88857 47.3288 0.171015 50.1999 2.95225 52.2378L8.86283 44.1715ZM6.60742 41.0274C6.20884 39.7664 6.22243 38.4111 6.64621 37.1583L-2.82653 33.954C-3.93135 37.2202 -3.96677 40.7534 -2.92767 44.0411L6.60742 41.0274ZM6.64621 37.1583C7.06999 35.9054 7.88193 34.8202 8.96421 34.06L3.21657 25.8768C0.395029 27.8586 -1.72171 30.6878 -2.82653 33.954L6.64621 37.1583ZM8.96421 34.06C10.0465 33.2999 11.3428 32.9043 12.6651 32.9307L12.865 22.9327C9.4177 22.8638 6.03812 23.8951 3.21657 25.8768L8.96421 34.06ZM12.6651 32.9307C13.9874 32.9572 15.2669 33.4042 16.318 34.207L22.388 26.2601C19.648 24.1671 16.3123 23.0016 12.865 22.9327L12.6651 32.9307ZM16.318 34.207C17.369 35.0098 18.1369 36.1266 18.5103 37.3954L28.1035 34.5723C27.1301 31.2646 25.1281 28.353 22.388 26.2601L16.318 34.207ZM18.5103 37.3954C18.8837 38.6642 18.8431 40.0189 18.3944 41.2631L27.8015 44.6554C28.9711 41.4119 29.0769 37.88 28.1035 34.5723L18.5103 37.3954ZM21.4016 47.6627L67.6346 64.3369L71.0273 54.93L24.7943 38.2558L21.4016 47.6627ZM73.2574 62.7292L104.478 23.1305L96.6251 16.9391L65.4046 56.5378L73.2574 62.7292ZM103.648 16.1087C102.632 15.308 101.892 14.2108 101.529 12.9697L91.9308 15.7772C92.8772 19.0128 94.8083 21.8732 97.4554 23.9608L103.648 16.1087ZM101.529 12.9697C101.166 11.7285 101.198 10.4051 101.622 9.18341L92.1742 5.90629C91.0694 9.09136 90.9843 12.5415 91.9308 15.7772L101.529 12.9697ZM101.622 9.18341C102.046 7.96169 102.84 6.90234 103.893 6.1526L98.0954 -1.99514C95.3486 -0.0405581 93.279 2.72121 92.1742 5.90629L101.622 9.18341ZM103.893 6.1526C104.947 5.40287 106.208 5 107.501 5L107.501 -5C104.13 -5 100.842 -3.94971 98.0954 -1.99514L103.893 6.1526ZM107.501 5C108.794 5 110.055 5.40287 111.109 6.1526L116.907 -1.99514C114.16 -3.94971 110.872 -5 107.501 -5L107.501 5ZM111.109 6.1526C112.162 6.90234 112.956 7.96169 113.38 9.18341L122.828 5.90629C121.723 2.72121 119.653 -0.0405581 116.907 -1.99514L111.109 6.1526ZM113.38 9.18341C113.804 10.4051 113.836 11.7285 113.473 12.9697L123.071 15.7772C124.018 12.5415 123.933 9.09137 122.828 5.90629L113.38 9.18341ZM113.473 12.9697C113.11 14.2108 112.37 15.308 111.354 16.1087L117.547 23.9608C120.194 21.8732 122.125 19.0128 123.071 15.7772L113.473 12.9697ZM110.524 23.1305L141.745 62.7292L149.597 56.5378L118.377 16.9391L110.524 23.1305ZM147.367 64.3369L193.6 47.6627L190.208 38.2558L143.975 54.93L147.367 64.3369ZM196.607 41.2631C196.159 40.0189 196.118 38.6642 196.492 37.3954L186.898 34.5723C185.925 37.88 186.031 41.4118 187.2 44.6554L196.607 41.2631ZM196.492 37.3954C196.865 36.1266 197.633 35.0098 198.684 34.207L192.614 26.2601C189.874 28.353 187.872 31.2646 186.898 34.5723L196.492 37.3954ZM198.684 34.207C199.735 33.4042 201.014 32.9572 202.337 32.9307L202.137 22.9327C198.69 23.0016 195.354 24.1671 192.614 26.2601L198.684 34.207ZM202.337 32.9307C203.659 32.9043 204.955 33.2999 206.038 34.06L211.785 25.8768C208.964 23.8951 205.584 22.8638 202.137 22.9327L202.337 32.9307ZM206.038 34.06C207.12 34.8202 207.932 35.9054 208.356 37.1583L217.828 33.954C216.724 30.6878 214.607 27.8586 211.785 25.8768L206.038 34.06ZM208.356 37.1583C208.78 38.4111 208.793 39.7664 208.395 41.0274L217.93 44.0411C218.969 40.7534 218.933 37.2202 217.828 33.954L208.356 37.1583ZM208.395 41.0274C207.996 42.2885 207.206 43.3898 206.139 44.1715L212.05 52.2378C214.831 50.1999 216.89 47.3288 217.93 44.0411L208.395 41.0274ZM206.139 44.1715C205.072 44.9532 203.784 45.3747 202.462 45.3748L202.462 55.3748C205.91 55.3746 209.268 54.2758 212.05 52.2378L206.139 44.1715ZM197.462 50.3748V120.857H207.462V50.3748H197.462Z" fill="white" mask="url(#path-5-inside-1)"/>
<path d="M39.5166 96.0208C41.4382 96.0208 43.3166 95.4508 44.914 94.3828C46.5115 93.3149 47.7563 91.7971 48.4909 90.0215C49.2254 88.2459 49.4168 86.2922 49.0406 84.4078C48.6645 82.5234 47.7378 80.793 46.3778 79.4354C45.0179 78.0779 43.2858 77.1543 41.4007 76.7815C39.5156 76.4087 37.5624 76.6035 35.788 77.3412C34.0137 78.0789 32.4981 79.3264 31.433 80.9258C30.368 82.5252 29.8013 84.4046 29.8047 86.3262C29.8138 88.8975 30.8405 91.3607 32.6604 93.1773C34.4802 94.9939 36.9452 96.0163 39.5166 96.0208V96.0208Z" fill="white"/>
<path d="M175.483 96.0208C177.405 96.0208 179.283 95.4508 180.881 94.3828C182.478 93.3149 183.723 91.7971 184.458 90.0215C185.192 88.2459 185.384 86.2922 185.007 84.4078C184.631 82.5234 183.705 80.793 182.345 79.4354C180.985 78.0779 179.253 77.1543 177.367 76.7815C175.482 76.4087 173.529 76.6035 171.755 77.3412C169.981 78.0789 168.465 79.3264 167.4 80.9258C166.335 82.5252 165.768 84.4046 165.771 86.3262C165.781 88.8975 166.807 91.3607 168.627 93.1773C170.447 94.9939 172.912 96.0163 175.483 96.0208V96.0208Z" fill="white"/>
<path d="M74.0479 96.0212V96.0165" stroke="white" stroke-width="20" stroke-linecap="round" stroke-linejoin="round"/>
<path d="M140.952 96.0212V96.0165" stroke="white" stroke-width="20" stroke-linecap="round" stroke-linejoin="round"/>
</svg>
